<svg width="32" height="24" viewBox="0 0 32 24" fill="none" xmlns="http://www.w3.org/2000/svg">
<path d="M30.0488 0H1.95122C0.875317 0 0 0.887553 0 1.97849V21.7634C0 22.8544 0.875317 23.7419 1.95122 23.7419H30.0488C31.1247 23.7419 32 22.8544 32 21.7634V1.97849C32 0.887553 31.1247 0 30.0488 0ZM16 13.6156L3.92858 2.37419H28.071L16 13.6156ZM10.7832 11.981L2.34146 19.6097V4.11962L10.7832 11.981ZM12.5163 13.595L14.642 15.5743C15.008 15.9344 15.4888 16.1323 16 16.1323C16.5112 16.1323 16.9924 15.9344 17.358 15.5743L19.4833 13.595L28.0847 21.3677H3.91493L12.5163 13.595ZM21.2168 11.9814L29.6585 4.11962V19.6097L21.2168 11.9814Z" fill="white"/>
</svg>
