<svg width="33" height="42" viewBox="0 0 33 42" fill="none" xmlns="http://www.w3.org/2000/svg">
<path d="M24.7415 41.488C28.1495 41.488 30.1655 41.584 32.9495 41.824V32.752C31.0775 32.992 28.8695 33.088 25.2695 33.088H14.0855C15.1895 30.976 16.9655 29.296 21.1415 26.416C26.0375 23.008 26.5175 22.672 28.1015 21.28C31.0775 18.832 32.5175 15.856 32.5175 12.352C32.5175 10.288 31.9895 8.416 30.9335 6.736C28.5335 2.848 23.5895 0.687997 17.1095 0.687997C11.4935 0.687997 7.1255 2.416 4.3895 5.632C2.4695 7.888 1.6055 10 0.8855 14.176L10.9655 15.232C11.2055 13.216 11.4935 12.256 12.1655 11.2C13.2215 9.568 14.8535 8.8 17.1575 8.8C20.2295 8.8 22.2935 10.336 22.2935 12.64C22.2935 14.848 21.2855 16.096 17.1575 18.88C12.2615 22.192 10.4375 23.584 8.6135 25.264C5.2535 28.384 2.9495 32.032 1.7015 36.016C1.1255 37.888 0.8855 39.328 0.6935 41.68C2.4695 41.536 3.5735 41.488 7.8935 41.488H24.7415Z" fill="#FFCB11"/>
</svg>
