<svg width="36" height="41" viewBox="0 0 36 41" fill="none" xmlns="http://www.w3.org/2000/svg">
<path d="M0.3975 32.328C2.1735 32.184 3.5175 32.136 6.6375 32.136H20.2215V34.488C20.2215 36.84 20.0775 38.856 19.8375 40.488H29.7255C29.4375 38.664 29.3415 37.272 29.3415 34.584V32.184H30.7815C32.2695 32.184 34.0455 32.28 35.4855 32.472V23.736C33.8055 23.976 32.2215 24.12 30.7335 24.12H29.3415V8.52C29.3415 5.304 29.4375 3.384 29.7255 0.551997H19.8855C18.6375 2.424 17.7255 3.624 15.4215 6.264L5.0055 18.456C2.5575 21.336 2.5575 21.336 0.3975 23.736V32.328ZM20.2695 24.216H10.5735L17.5815 15.672C18.8775 14.04 19.5975 13.08 20.5575 11.736C20.3655 13.848 20.2695 16.488 20.2695 18.648V24.216Z" fill="#FFCB11"/>
</svg>
