<svg width="34" height="43" viewBox="0 0 34 43" fill="none" xmlns="http://www.w3.org/2000/svg">
<path d="M0.1175 31.072C0.4535 32.32 0.6455 32.944 0.9335 33.616C1.9895 36.256 3.6695 38.368 5.8775 39.808C8.4215 41.488 12.7415 42.496 17.0615 42.496C20.6615 42.496 24.5495 41.776 27.0455 40.624C28.8215 39.808 30.5015 38.464 31.5575 37.024C32.8055 35.344 33.4775 33.088 33.4775 30.64C33.4775 27.856 32.3255 25.36 30.3095 23.536C28.6295 22.096 27.0455 21.424 24.1175 20.992C29.6375 19.696 32.3735 16.528 32.3735 11.44C32.3735 8.704 31.4615 6.4 29.6855 4.624C26.9495 1.984 22.6295 0.543999 17.3975 0.543999C11.5415 0.543999 7.1255 2.176 4.1975 5.344C2.6615 7.024 1.8935 8.464 0.9815 11.44L11.3495 12.928C12.0695 9.856 13.7975 8.512 17.2055 8.512C20.3735 8.512 22.1975 10 22.1975 12.592C22.1975 15.664 19.9415 17.2 15.3815 17.2C13.5095 17.2 11.9255 17.104 10.2935 16.912V25.168C12.1655 24.976 14.3255 24.88 16.1975 24.88C18.0695 24.88 19.5575 25.12 20.6615 25.504C22.2935 26.128 23.2535 27.664 23.2535 29.632C23.2535 32.56 20.9015 34.432 17.1575 34.432C14.8535 34.432 12.9335 33.712 11.6375 32.368C10.8695 31.552 10.5815 30.88 10.2935 29.296L0.1175 31.072Z" fill="#FFCB11"/>
</svg>
