<svg width="32" height="32" viewBox="0 0 32 32" fill="none" xmlns="http://www.w3.org/2000/svg">
<path d="M6.97458 19.568L14.5778 15.1783V6.4C14.5778 5.61458 15.2146 4.97778 16 4.97778C16.7854 4.97778 17.4222 5.61458 17.4222 6.4V16H17.4162C17.4158 16.4907 17.1669 16.9678 16.7108 17.2313L8.40178 22.0284C8.4 22.0295 8.39858 22.0309 8.3968 22.032C7.71662 22.4245 6.84693 22.1913 6.45369 21.5111C6.06116 20.8309 6.2944 19.9612 6.97458 19.568ZM1.42258 14.5781C0.636445 14.5792 5.95655e-07 15.2142 5.95655e-07 15.9996C-0.000710516 16.7854 0.635378 17.4219 1.42187 17.4219C2.20729 17.4219 2.84373 16.7854 2.84445 15.9986C2.84373 15.2149 2.208 14.5781 1.42258 14.5781ZM4.0864 7.48018C3.40516 7.088 2.53653 7.31982 2.14365 8C1.7504 8.68018 1.98293 9.54916 2.66382 9.9424C3.34436 10.3349 4.21369 10.102 4.60765 9.42116C4.99911 8.74169 4.76658 7.87271 4.0864 7.48018ZM2.14365 24C2.14756 24.0068 2.15253 24.0114 2.15645 24.0181L2.15218 24.0206C4.92196 28.7918 10.086 32 16 32C24.8366 32 32 24.8366 32 16C32 7.16338 24.8366 0 16 0C15.2146 0 14.5778 0.6368 14.5778 1.42222C14.5778 2.20764 15.2146 2.84444 16 2.84444C16.0011 2.84444 16.0018 2.84409 16.0028 2.84409C23.2665 2.84551 29.1541 8.73493 29.1541 15.9996C29.1541 23.2651 23.2651 29.1552 16 29.1552C11.1175 29.1552 6.85618 26.4946 4.58667 22.5436L4.58382 22.5454C4.18169 21.8919 3.33227 21.6708 2.66382 22.0572C1.984 22.4501 1.75076 23.3202 2.14365 24ZM9.94276 2.66489C9.5488 1.98471 8.68053 1.75111 8.00036 2.14364C7.31947 2.53582 7.08658 3.4048 7.47947 4.08604C7.872 4.76658 8.74169 4.99947 9.42365 4.60622C10.102 4.21369 10.3353 3.34507 9.94276 2.66489Z" fill="#012E55"/>
</svg>
