<svg width="158" height="128" viewBox="0 0 158 128" fill="none" xmlns="http://www.w3.org/2000/svg">
<path d="M49.4488 128C108.85 128 141.354 78.7401 141.354 36.0945C141.354 34.7087 141.354 33.3228 141.291 31.937C147.591 27.4016 153.071 21.6693 157.417 15.1811C151.622 17.7638 145.386 19.4646 138.835 20.2835C145.512 16.315 150.614 9.95275 153.071 2.3937C146.835 6.11023 139.906 8.7559 132.535 10.2047C126.614 3.90551 118.236 0 108.976 0C91.1496 0 76.6614 14.4882 76.6614 32.315C76.6614 34.8346 76.9764 37.2913 77.4803 39.685C50.6457 38.3622 26.8346 25.4488 10.8976 5.92126C8.12599 10.7087 6.55118 16.252 6.55118 22.1732C6.55118 33.3858 12.2835 43.2756 20.9134 49.0709C15.6221 48.8819 10.6457 47.4331 6.29921 45.0394C6.29921 45.1653 6.29921 45.2913 6.29921 45.4803C6.29921 61.1024 17.4488 74.2047 32.189 77.1653C29.4803 77.9212 26.6457 78.2992 23.685 78.2992C21.6063 78.2992 19.5906 78.1102 17.6378 77.7323C21.7323 90.5827 33.7008 99.9055 47.811 100.157C36.7244 108.85 22.8032 114.016 7.68504 114.016C5.10237 114.016 2.51969 113.89 0 113.575C14.2362 122.646 31.2441 128 49.4488 128Z" fill="white"/>
</svg>
